<?xml version="1.0" encoding="UTF-8" standalone="no"?>
<!-- Generator: Adobe Illustrator 25.0.0, SVG Export Plug-In . SVG Version: 6.00 Build 0)  -->

<svg
   version="1.1"
   id="katman_1"
   x="0px"
   y="0px"
   viewBox="0 0 500.00001 603.70552"
   xml:space="preserve"
   sodipodi:docname="AWS-EC2.svg"
   width="500"
   height="603.70551"
   inkscape:version="1.2 (dc2aedaf03, 2022-05-15)"
   inkscape:export-filename="AWS-EC2.png"
   inkscape:export-xdpi="115.92541"
   inkscape:export-ydpi="115.92541"
   xmlns:inkscape="http://www.inkscape.org/namespaces/inkscape"
   xmlns:sodipodi="http://sodipodi.sourceforge.net/DTD/sodipodi-0.dtd"
   xmlns="http://www.w3.org/2000/svg"
   xmlns:svg="http://www.w3.org/2000/svg"><defs
   id="defs13" /><sodipodi:namedview
   id="namedview11"
   pagecolor="#505050"
   bordercolor="#eeeeee"
   borderopacity="1"
   inkscape:showpageshadow="0"
   inkscape:pageopacity="0"
   inkscape:pagecheckerboard="0"
   inkscape:deskcolor="#505050"
   showgrid="false"
   inkscape:zoom="0.84735126"
   inkscape:cx="-18.292296"
   inkscape:cy="208.29614"
   inkscape:window-width="1920"
   inkscape:window-height="1051"
   inkscape:window-x="-9"
   inkscape:window-y="-9"
   inkscape:window-maximized="1"
   inkscape:current-layer="katman_1" />
<style
   type="text/css"
   id="style2">
	.st0{fill:#F68536;}
	.st1{fill:#9D5025;}
</style>
<path
   class="st0"
   d="m 83.506899,477.52482 -58.44031,13.32042 V 112.42432 l 58.44031,13.36885 v 351.73165"
   id="path4"
   style="stroke-width:0.242189" />
<path
   class="st0"
   d="M 156.40591,499.87891 83.506899,520.58609 V 83.216275 l 72.899011,20.682975 v 395.97966 m 93.53354,22.93533 -93.53354,34.22136 V 46.766772 l 93.53354,34.221361 V 522.81424 M 500,478.66312 249.93945,603.7055 V 0 L 500,125.04238 v 353.62074"
   id="path6"
   style="stroke-width:0.242189" />
<path
   class="st1"
   d="M 200.07266,24.921289 249.93945,0 V 603.7055 L 200.09687,578.78421 V 24.921289 M 117.82513,66.045047 156.40591,46.742552 V 556.9145 L 117.82513,537.61201 V 66.045047 M 52.748852,98.595302 83.48269,83.216275 V 520.48922 L 52.748852,505.1102 V 98.595302 M 25.066589,112.42432 0,124.96973 v 353.79026 l 25.066589,12.52119 V 112.42432"
   id="path8"
   style="stroke-width:0.242189" />
</svg>
