<?xml version="1.0" encoding="UTF-8" standalone="no"?>
<!-- Uploaded to: SVG Repo, www.svgrepo.com, Generator: SVG Repo Mixer Tools -->

<svg
   width="680.94873"
   height="666.54395"
   viewBox="0 0 54.475898 53.323516"
   stroke-width="3"
   stroke="#000000"
   fill="none"
   version="1.1"
   id="svg2515"
   sodipodi:docname="link.svg"
   inkscape:version="1.2 (dc2aedaf03, 2022-05-15)"
   xmlns:inkscape="http://www.inkscape.org/namespaces/inkscape"
   xmlns:sodipodi="http://sodipodi.sourceforge.net/DTD/sodipodi-0.dtd"
   xmlns="http://www.w3.org/2000/svg"
   xmlns:svg="http://www.w3.org/2000/svg">
  <defs
     id="defs2519" />
  <sodipodi:namedview
     id="namedview2517"
     pagecolor="#505050"
     bordercolor="#eeeeee"
     borderopacity="1"
     inkscape:showpageshadow="0"
     inkscape:pageopacity="0"
     inkscape:pagecheckerboard="0"
     inkscape:deskcolor="#505050"
     showgrid="false"
     inkscape:zoom="1.08"
     inkscape:cx="330.09259"
     inkscape:cy="328.24074"
     inkscape:window-width="1920"
     inkscape:window-height="1051"
     inkscape:window-x="1911"
     inkscape:window-y="-9"
     inkscape:window-maximized="1"
     inkscape:current-layer="svg2515" />
  <path
     d="m 34.285771,49.920996 a 24.86,24.86 0 1 1 16.93,-23.57 37.24,37.24 0 0 1 -0.73,6"
     id="path2497"
     style="stroke:#ffffff;stroke-opacity:1" />
  <path
     d="m 32.215771,45.300996 a 47,47 0 0 1 -5.86,5.6"
     id="path2499"
     style="stroke:#ffffff;stroke-opacity:1" />
  <path
     d="m 26.355771,1.2009965 a 34.14,34.14 0 0 1 11.57,22.9999995 34.07,34.07 0 0 1 0.09,4.85"
     id="path2501"
     style="stroke:#ffffff;stroke-opacity:1" />
  <path
     d="m 26.355771,1.2009965 a 34.09,34.09 0 0 0 -11.69,25.4599995 c 0,16.2 7.28,21 11.66,24.24"
     id="path2503"
     style="stroke:#ffffff;stroke-opacity:1" />
  <line
     x1="4.725771"
     y1="14.100996"
     x2="48.10577"
     y2="14.100996"
     id="line2505"
     style="stroke:#ffffff;stroke-opacity:1" />
  <line
     x1="26.35577"
     y1="1.1909963"
     x2="26.35577"
     y2="50.900997"
     id="line2507"
     style="stroke:#ffffff;stroke-opacity:1" />
  <line
     x1="5.4057713"
     y1="39.680996"
     x2="31.395771"
     y2="39.680996"
     id="line2509"
     style="stroke:#ffffff;stroke-opacity:1" />
  <line
     x1="1.4957709"
     y1="26.660995"
     x2="51.215771"
     y2="26.050997"
     id="line2511"
     style="stroke:#ffffff;stroke-opacity:1" />
  <path
     d="m 47.925771,51.200996 4.43,-4.44 -8,-8 4.55,-2.91 a 0.38,0.38 0 0 0 -0.12,-0.7 l -15.29,-3.58 a 0.39,0.39 0 0 0 -0.46,0.46 l 3.32,15.58 a 0.39,0.39 0 0 0 0.71,0.13 l 2.86,-4.54 z"
     id="path2513"
     style="stroke:#ffffff;stroke-opacity:1" />
</svg>
